<svg version="1.1" id="Layer_1" xmlns="http://www.w3.org/2000/svg" xmlns:xlink="http://www.w3.org/1999/xlink" x="0px" y="0px"
	 width="100%" viewBox="0 0 736 736" enable-background="new 0 0 736 736" xml:space="preserve">
<path fill="#2DA44E" opacity="1.000000" stroke="none" 
	d="
M266.650208,538.355713 
	C260.351746,532.095093 256.378479,524.862061 253.916931,516.775513 
	C253.367737,514.971252 252.918289,513.254333 251.069992,512.336975 
	C248.545990,511.084167 247.129929,509.165802 248.027344,506.282684 
	C248.930664,503.380585 251.351120,502.892731 254.027161,502.890991 
	C270.018372,502.880493 286.009583,502.809387 302.000793,502.816345 
	C356.827698,502.840179 411.654633,502.891998 466.481537,502.923126 
	C476.814087,502.928986 487.146667,502.876678 497.479218,502.877350 
	C500.556946,502.877563 503.755829,502.991180 504.796600,506.666412 
	C505.712830,509.902039 503.572296,511.548126 500.955658,512.742859 
	C499.319031,513.490173 499.389435,515.170044 498.938324,516.556030 
	C491.475647,539.483215 474.021240,552.170959 449.781403,552.183960 
	C400.617371,552.210266 351.453247,552.136536 302.289429,552.239258 
	C288.644196,552.267761 276.805786,548.066101 266.650208,538.355713 
z"/>
<path fill="#2DA44E" opacity="1.000000" stroke="none" 
	d="
M389.424500,421.384857 
	C380.390656,419.944580 371.639740,418.840210 363.098999,416.838928 
	C356.085510,415.195557 354.597717,408.816223 353.842407,402.794830 
	C352.872406,395.062042 353.536774,388.329407 361.007782,382.665894 
	C369.616455,376.139893 370.298523,365.218658 370.411072,355.241455 
	C370.514038,346.115021 368.735107,337.021881 364.796265,328.577148 
	C361.593384,321.710297 357.509583,315.000824 349.191528,314.802826 
	C340.969299,314.607147 336.830658,321.202332 333.691254,327.867035 
	C327.918213,340.122894 326.624542,353.091003 328.710327,366.345001 
	C329.965210,374.319153 333.632690,381.026215 340.368683,386.010345 
	C345.420746,389.748413 346.063843,399.779541 342.132996,406.041138 
	C338.770111,411.398041 333.283600,412.592590 326.295593,409.224091 
	C318.438751,405.436890 313.666473,399.121246 311.751495,390.630920 
	C310.389252,384.591248 309.980286,378.399780 309.938293,372.282501 
	C309.875092,363.075897 308.105042,354.103760 307.270874,345.015198 
	C305.303802,323.582306 310.554382,304.919556 329.654144,292.444214 
	C341.056183,284.996735 353.960236,283.111542 367.073364,285.137207 
	C379.051331,286.987488 390.879486,289.285858 403.065948,290.046722 
	C421.389954,291.190735 433.549042,302.163116 438.300568,320.220917 
	C443.568512,340.241180 442.757721,359.766144 433.002625,378.445343 
	C428.821533,386.451385 425.240021,394.653564 424.281036,403.776459 
	C424.049927,405.974609 423.013733,407.902008 421.638580,409.620697 
	C417.353027,414.976837 411.040161,414.272583 407.953918,408.104797 
	C404.529327,401.260773 406.469513,390.760254 412.908997,386.573486 
	C419.195984,382.485748 421.087952,377.295319 420.761078,370.151367 
	C420.039246,354.373993 419.997101,338.558868 417.628326,322.898193 
	C416.971497,318.555634 416.721161,318.389954 414.374725,316.171722 
	C412.639435,317.597107 413.351715,319.571960 413.339569,321.292908 
	C413.265564,331.789276 413.359009,342.287048 413.249268,352.782806 
	C413.217316,355.839722 413.670624,360.322693 409.611053,360.360474 
	C405.549408,360.398376 405.959167,355.837402 405.818909,352.838348 
	C405.321503,342.203247 405.062195,331.557068 404.696442,320.915649 
	C404.630371,318.993652 405.107849,316.867218 402.820007,315.419617 
	C400.159637,316.359070 400.453461,318.652191 400.374176,320.720795 
	C399.966400,331.360382 399.638245,342.003540 399.145477,352.639099 
	C399.004395,355.684296 399.440918,360.258820 395.540100,360.329071 
	C390.994263,360.410858 391.773102,355.679840 391.738373,352.518555 
	C391.624908,342.189575 391.716858,331.858459 391.688324,321.528259 
	C391.683472,319.765900 392.092346,317.888519 390.545288,315.752228 
	C386.860992,319.175018 386.922119,323.719360 386.522583,327.630066 
	C384.915375,343.361359 384.379486,359.164520 384.295013,374.985718 
	C384.269379,379.785217 386.610962,382.935944 390.327576,385.179504 
	C396.439301,388.868958 398.863556,394.167786 398.345062,401.139374 
	C398.123138,404.122925 398.492737,407.154388 398.216919,410.129150 
	C397.718109,415.508850 395.247864,419.585938 389.424500,421.384857 
z"/>
<path fill="#2DA44E" opacity="1.000000" stroke="none" 
	d="
M421.666809,436.804688 
	C425.448853,425.903412 425.444275,425.986084 436.913818,426.621033 
	C439.844849,426.783295 441.140564,427.825562 441.128998,430.785187 
	C441.061890,447.936890 441.016815,465.088928 441.059753,482.240662 
	C441.071747,487.024933 437.772675,486.332153 434.826569,486.327423 
	C431.857330,486.322632 428.631500,486.923248 428.693176,482.125793 
	C428.830078,471.475311 428.735809,460.821838 427.953156,449.932800 
	C425.454712,456.943420 422.942932,463.949371 420.463806,470.966827 
	C419.355865,474.102814 418.348114,477.274261 417.233612,480.407867 
	C415.116760,486.359924 413.034210,487.402527 406.771362,486.314636 
	C403.932220,485.821442 403.630615,483.596283 402.943634,481.655731 
	C399.226990,471.157654 395.602264,460.627075 391.066864,450.123657 
	C391.066864,453.615326 391.071411,457.106995 391.065887,460.598663 
	C391.056122,466.760040 391.046356,472.921478 391.025330,479.082825 
	C391.001099,486.190674 388.560638,487.971222 381.497681,486.275940 
	C379.642670,485.830658 379.000519,484.711029 378.997772,483.100525 
	C378.967712,465.449829 378.969757,447.799042 379.004730,430.148376 
	C379.006287,429.356049 379.156158,428.130707 379.659454,427.840973 
	C383.813629,425.449646 388.375397,427.052338 392.755859,426.742371 
	C395.370026,426.557404 395.935486,428.659149 396.601227,430.581177 
	C400.465881,441.738525 404.336945,452.893646 408.231018,464.040771 
	C408.701416,465.387421 408.790405,466.958038 410.703278,468.305420 
	C414.379852,457.765564 417.969238,447.475739 421.666809,436.804688 
z"/>
<path fill="#2DA44E" opacity="1.000000" stroke="none" 
	d="
M272.435791,309.479248 
	C292.725281,279.270630 320.137329,260.545166 356.109161,255.627869 
	C389.734100,251.031418 420.751160,257.904388 447.822113,279.088074 
	C473.181122,298.932098 488.937561,324.692535 493.331268,356.787018 
	C496.262543,378.199005 494.760162,399.304291 486.318878,419.537720 
	C485.226501,422.156189 484.296356,425.036560 479.881378,423.389557 
	C497.966705,375.943420 492.483124,332.275024 457.345398,294.603485 
	C434.365631,269.966644 405.124756,258.289215 371.315399,259.292114 
	C329.876190,260.521301 297.778473,279.156158 275.919861,314.004944 
	C254.108643,348.778168 253.176071,385.758606 268.741669,423.370209 
	C264.668396,425.154388 263.412903,423.021240 262.298431,420.316498 
	C257.829498,409.470734 254.778442,398.199097 253.871826,386.553864 
	C251.731140,359.057312 257.075592,333.211212 272.435791,309.479248 
z"/>
<path fill="#2DA44E" opacity="1.000000" stroke="none" 
	d="
M458.326416,481.695831 
	C450.946991,473.152344 450.028229,463.684052 453.521851,453.809387 
	C458.182953,440.634827 475.931122,435.648804 487.172699,444.054108 
	C492.078064,447.721832 495.192566,458.021515 493.520111,464.089539 
	C492.709412,467.030914 490.568268,466.900818 488.450500,466.932587 
	C482.455383,467.022522 476.458252,466.971222 470.462402,467.027069 
	C468.668610,467.043762 466.800812,466.736938 464.926331,467.835266 
	C464.791412,471.528503 466.256165,474.322845 469.668427,475.727386 
	C473.925812,477.479645 478.162781,477.347473 481.890839,474.295349 
	C485.363892,471.452026 489.485626,471.899384 492.169128,475.416290 
	C493.236206,476.814758 492.651764,477.833954 491.938110,479.017334 
	C489.866577,482.452332 486.912628,484.907166 483.121826,485.995483 
	C474.360413,488.510986 465.994965,487.971191 458.326416,481.695831 
M481.432159,457.374695 
	C480.733398,451.907013 478.676544,450.072662 473.415253,450.224945 
	C468.367767,450.371033 465.865753,452.811157 465.279907,458.564850 
	C470.557526,458.389313 475.794861,459.409393 481.432159,457.374695 
z"/>
<path fill="#2DA44E" opacity="1.000000" stroke="none" 
	d="
M521.207642,485.699432 
	C516.547119,487.711182 512.151978,487.879333 507.721863,486.322205 
	C502.789520,484.588501 500.262665,480.903259 499.715393,475.866669 
	C499.099579,470.198883 500.222595,465.218323 505.860901,462.318787 
	C510.074371,460.151978 514.708191,459.535889 519.240662,458.484650 
	C521.934204,457.859924 525.348206,457.228607 524.547729,453.274353 
	C523.831116,449.734283 520.598267,450.321686 517.992798,450.342468 
	C513.219482,450.380524 509.839325,453.657745 506.226318,455.966125 
	C499.244537,449.727417 499.499817,447.093903 507.265442,443.197479 
	C513.442505,440.098145 519.953369,439.319885 526.673584,440.959229 
	C533.257935,442.565430 536.816772,447.211090 537.153198,454.981018 
	C537.397888,460.634277 537.234497,466.305573 537.234985,471.968842 
	C537.235168,474.240875 537.437927,476.064972 540.272705,476.886047 
	C543.788635,477.904327 542.347168,481.403198 542.639954,483.759399 
	C542.937439,486.152954 540.428101,486.140411 538.653748,486.513641 
	C533.581055,487.580688 529.517273,485.948730 526.411316,481.761719 
	C524.648743,483.113434 523.092529,484.306885 521.207642,485.699432 
M511.525330,471.816284 
	C512.463013,476.937378 514.639160,478.563843 519.274048,477.607697 
	C523.998352,476.633057 526.443970,471.211853 524.691650,464.845581 
	C520.632812,467.615967 514.464661,465.484802 511.525330,471.816284 
z"/>
<path fill="#2DA44E" opacity="1.000000" stroke="none" 
	d="
M253.703308,471.873138 
	C250.598801,456.377167 256.961487,445.040527 270.118347,442.108521 
	C285.051270,438.780670 296.741669,449.858215 294.325134,464.922485 
	C293.858215,467.833008 292.110504,468.270569 289.753876,468.265076 
	C283.601288,468.250763 277.448578,468.238800 271.296112,468.268219 
	C269.519348,468.276703 267.743286,468.428619 265.682159,468.528595 
	C265.971527,472.816284 267.465851,475.912537 271.130005,477.086639 
	C275.172668,478.381927 279.312256,478.448883 282.872375,475.346527 
	C286.012695,472.610016 290.300781,473.185699 292.706329,476.519409 
	C294.183807,478.566925 292.750916,479.936035 291.682068,481.364105 
	C283.042999,492.906158 261.048218,489.999695 255.191788,476.535065 
	C254.598343,475.170624 254.231491,473.707581 253.703308,471.873138 
M270.897858,452.232361 
	C267.878876,453.546844 266.406158,455.855286 266.096649,459.661896 
	C270.881592,459.661896 275.318848,459.755280 279.749817,459.628632 
	C282.641632,459.546021 283.100006,457.795166 281.834106,455.550690 
	C279.501465,451.414795 275.873688,450.667450 270.897858,452.232361 
z"/>
<path fill="#2DA44E" opacity="1.000000" stroke="none" 
	d="
M206.871765,487.317871 
	C205.231033,487.340057 204.054794,487.244324 202.902466,487.369202 
	C199.129379,487.778137 197.811996,486.006531 198.070221,482.406250 
	C198.606125,474.934509 199.063812,467.430695 198.312500,459.968292 
	C197.640549,453.294067 193.838196,450.630890 188.270615,452.681030 
	C184.278625,454.151001 182.298248,457.307556 182.253540,461.581329 
	C182.182144,468.405518 181.892609,475.241364 182.187607,482.050934 
	C182.416016,487.323608 179.423386,487.333252 175.566284,487.449371 
	C171.443283,487.573425 169.505264,486.581757 169.631073,481.947937 
	C169.915649,471.467804 169.712433,460.974579 169.718216,450.486664 
	C169.722733,442.287567 169.821869,442.195892 178.173584,442.714142 
	C178.986053,442.764587 179.788422,442.977692 180.741287,443.140106 
	C181.081024,444.629547 181.400635,446.030701 181.837067,447.944092 
	C185.483475,444.164246 189.496078,441.803711 194.596695,441.690033 
	C204.024597,441.479889 209.861877,446.759155 210.215042,456.600952 
	C210.531250,465.413025 210.307968,474.244720 210.305511,483.067780 
	C210.304932,485.143982 210.216537,487.207153 206.871765,487.317871 
z"/>
<path fill="#2DA44E" opacity="1.000000" stroke="none" 
	d="
M574.819092,483.315582 
	C570.335022,479.227051 571.279663,474.336578 576.556152,472.184082 
	C578.659790,471.325897 579.539062,472.998352 580.797913,473.956787 
	C584.249756,476.584930 587.970703,478.097015 592.394409,476.800690 
	C594.123230,476.294098 595.458130,475.407806 595.599854,473.458740 
	C595.745483,471.456390 594.410400,470.347809 592.784180,469.789276 
	C590.592896,469.036743 588.296387,468.593323 586.051208,467.994171 
	C575.726440,465.238953 571.736877,460.396362 572.726013,451.835754 
	C573.531433,444.865295 580.686707,439.854797 590.064758,440.089874 
	C594.371826,440.197815 598.742676,440.773590 602.432190,443.378693 
	C604.197937,444.625427 607.379272,445.854034 604.942810,448.592285 
	C603.022522,450.750580 601.754944,455.843781 596.960938,452.230194 
	C594.557495,450.418518 591.789124,450.127258 588.898499,450.257080 
	C586.731323,450.354492 584.843811,450.915680 584.411133,453.338684 
	C583.941101,455.971069 585.948547,456.848297 587.896423,457.405853 
	C591.087585,458.319305 594.385254,458.866211 597.565063,459.812714 
	C604.494873,461.875488 607.667969,466.061920 607.674438,472.833374 
	C607.680908,479.600983 604.107910,484.391205 597.238770,486.274017 
	C589.543335,488.383301 582.089111,487.740906 574.819092,483.315582 
z"/>
<path fill="#2DA44E" opacity="1.000000" stroke="none" 
	d="
M229.794006,486.583313 
	C224.387909,483.462982 222.904419,478.635284 222.747437,473.267426 
	C222.582047,467.612457 222.662415,461.949188 222.700974,456.289978 
	C222.716324,454.040314 222.323273,452.245575 219.526199,452.331329 
	C216.211716,452.432922 215.802368,450.284607 215.851456,447.700775 
	C215.901062,445.089447 215.886719,442.515869 219.621964,442.637756 
	C222.468964,442.730621 222.610260,440.792694 222.734955,438.612885 
	C222.993271,434.096313 225.125320,432.848785 231.419327,432.632965 
	C235.977341,432.476593 235.069016,435.668762 234.914169,438.104828 
	C234.593033,443.157654 237.949966,442.579193 241.171951,442.708801 
	C243.715729,442.811127 247.093933,441.493744 247.352081,446.228088 
	C247.585052,450.500977 246.666046,452.688538 241.687759,452.434540 
	C235.054901,452.096161 235.026596,452.424805 235.002777,458.922028 
	C234.988144,462.916870 234.928802,466.914368 235.043610,470.906219 
	C235.224030,477.179230 237.199661,478.498657 243.213623,476.571838 
	C243.824219,476.376190 244.482925,476.330750 245.289627,476.184784 
	C247.029327,478.930725 249.228424,481.821411 247.776352,484.878876 
	C246.421112,487.732452 242.865387,487.984528 239.878632,488.258179 
	C236.537064,488.564392 233.217697,488.366821 229.794006,486.583313 
z"/>
<path fill="#2DA44E" opacity="1.000000" stroke="none" 
	d="
M561.335693,472.399780 
	C561.437927,474.876984 562.191772,476.434265 564.452576,476.647491 
	C566.190186,476.811340 566.921204,477.640686 567.411133,479.361877 
	C569.214844,485.699005 567.813232,487.567688 561.106262,487.310150 
	C554.535156,487.057831 550.539856,483.715698 549.623962,477.174286 
	C547.980225,465.435303 549.254578,453.614685 548.946045,441.834290 
	C548.819885,437.018250 548.968140,432.195587 548.948608,427.376099 
	C548.926758,421.974213 552.956665,423.235504 556.076172,423.003448 
	C559.363892,422.758911 561.416687,423.584076 561.378052,427.590393 
	C561.235474,442.380402 561.323303,457.172638 561.335693,472.399780 
z"/>
<path fill="#2DA44E" opacity="1.000000" stroke="none" 
	d="
M340.262451,432.105255 
	C340.264130,445.913452 340.281158,459.234009 340.249786,472.554443 
	C340.243439,475.244781 340.531982,477.191254 343.919830,477.958649 
	C348.061066,478.896698 346.191772,482.965454 346.586243,485.593536 
	C346.925079,487.851013 344.427399,488.093201 342.578186,488.282745 
	C334.417053,489.119141 329.550171,485.554260 328.290070,477.305328 
	C327.129395,469.706970 327.982452,462.015167 327.866516,454.366272 
	C327.752960,446.875183 327.934418,439.379395 327.799835,431.889008 
	C327.723969,427.666046 327.859375,424.316620 333.714081,424.681305 
	C339.998260,425.072784 340.134460,424.855042 340.262451,432.105255 
z"/>
<path fill="#2DA44E" opacity="1.000000" stroke="none" 
	d="
M302.708923,458.999512 
	C302.711670,449.008545 302.913055,439.511566 302.633850,430.028778 
	C302.490936,425.174530 304.968323,424.680695 308.832214,424.698914 
	C312.627808,424.716827 315.217896,425.064575 315.142975,429.956238 
	C314.931396,443.773224 315.075989,457.595673 315.074524,471.415955 
	C315.074188,474.465332 314.936432,477.104889 319.134857,478.153717 
	C322.331390,478.952301 321.215942,482.615265 321.223297,485.146973 
	C321.231171,487.870850 319.069977,488.106354 316.993073,488.288910 
	C308.557037,489.030579 303.300598,484.632904 302.811584,475.980164 
	C302.502014,470.502136 302.724640,464.994019 302.708923,458.999512 
z"/>
<path fill="#2DA44E" opacity="1.000000" stroke="none" 
	d="
M368.347961,459.975586 
	C368.347595,461.468933 368.347076,462.466156 368.348389,463.463379 
	C368.358185,470.937866 365.682373,472.923645 358.337860,471.099792 
	C356.242737,470.579529 355.766693,469.238373 355.764954,467.450378 
	C355.751862,454.154266 355.781769,440.858093 355.733154,427.562164 
	C355.723175,424.832581 356.884064,423.576691 359.612610,423.686707 
	C361.105743,423.746918 362.611938,423.787598 364.097748,423.663574 
	C367.375916,423.389954 368.431366,424.908783 368.394928,428.067413 
	C368.274139,438.536896 368.348907,449.008636 368.347961,459.975586 
z"/>
<path fill="#2DA44E" opacity="1.000000" stroke="none" 
	d="
M145.902527,456.013489 
	C145.903503,453.683868 145.896576,451.851715 145.902298,450.019623 
	C145.924545,442.910431 148.813416,440.878784 155.889908,442.755035 
	C158.082687,443.336487 158.248184,444.831116 158.249863,446.532166 
	C158.262085,458.857330 158.205551,471.182709 158.258591,483.507599 
	C158.278107,488.046600 155.072937,487.390381 152.326752,487.321747 
	C149.541565,487.252197 145.884247,488.431061 145.897919,483.492981 
	C145.922821,474.499084 145.902130,465.505005 145.902527,456.013489 
z"/>
<path fill="#2DA44E" opacity="1.000000" stroke="none" 
	d="
M472.461487,300.523438 
	C470.016479,298.169800 471.116638,296.418457 472.883698,294.815521 
	C485.103882,283.730103 498.068176,273.602570 511.938690,264.657074 
	C513.820190,263.443665 516.207947,262.488800 517.715210,264.747986 
	C519.251038,267.049957 516.823120,268.294128 515.327637,269.465637 
	C502.639893,279.404388 488.913757,288.010956 477.219543,299.229584 
	C476.041321,300.359894 474.670624,301.469604 472.461487,300.523438 
z"/>
<path fill="#2DA44E" opacity="1.000000" stroke="none" 
	d="
M192.107910,351.964294 
	C190.796127,347.599365 191.972733,346.200775 196.095535,346.974365 
	C206.695557,348.963287 217.273987,351.067474 227.857498,353.143768 
	C230.135284,353.590607 232.391800,354.145966 234.669708,354.592072 
	C236.508377,354.952148 237.917053,355.815002 237.653122,357.861938 
	C237.337189,360.312225 235.306564,360.542053 233.446686,360.239624 
	C227.878418,359.334167 222.314178,358.367004 216.796036,357.198700 
	C208.685043,355.481384 200.376755,354.729218 192.107910,351.964294 
z"/>
<path fill="#2DA44E" opacity="1.000000" stroke="none" 
	d="
M262.691345,235.326477 
	C266.630493,239.868637 270.359985,244.122971 274.025543,248.431656 
	C275.534454,250.205338 277.510742,252.248138 275.025848,254.429016 
	C272.697052,256.472931 271.045288,254.258026 269.671143,252.662048 
	C261.636658,243.330368 253.650299,233.957047 245.690582,224.561432 
	C244.302521,222.922974 242.507217,220.958160 244.752380,218.950500 
	C247.092545,216.857864 248.711060,219.089157 250.098022,220.668396 
	C254.270325,225.419235 258.343842,230.256821 262.691345,235.326477 
z"/>
<path fill="#2DA44E" opacity="1.000000" stroke="none" 
	d="
M393.220825,234.650055 
	C392.565399,237.293396 392.276703,240.217438 388.945129,239.240921 
	C386.218964,238.441879 386.886261,235.912109 387.157867,233.725739 
	C388.386078,223.838806 389.542175,213.942932 390.745697,204.052902 
	C390.906097,202.734650 391.191315,201.431702 391.414612,200.120956 
	C391.784546,197.949844 392.008148,195.478104 395.096466,195.868881 
	C398.022430,196.239120 397.516113,198.743958 397.311035,200.606354 
	C396.257019,210.178955 395.053833,219.735138 393.897614,229.296448 
	C393.698395,230.943680 393.474548,232.587967 393.220825,234.650055 
z"/>
<path fill="#2DA44E" opacity="1.000000" stroke="none" 
	d="
M550.248657,408.466675 
	C551.331787,408.617859 552.003601,408.641418 552.654541,408.770294 
	C554.407776,409.117462 556.024475,409.887878 555.862549,411.921143 
	C555.672424,414.307343 553.787048,414.685913 551.794495,414.476532 
	C544.027405,413.660309 536.258972,412.852600 528.501160,411.954834 
	C524.541687,411.496674 520.606812,410.830078 516.654602,410.304260 
	C514.385925,410.002472 511.927917,409.462158 512.185913,406.701447 
	C512.449341,403.883545 514.841003,403.891144 517.207886,404.206116 
	C528.074219,405.652161 538.953369,407.002441 550.248657,408.466675 
z"/>
<path fill="#2DA44E" opacity="1.000000" stroke="none" 
	d="
M444.417267,390.235596 
	C443.723145,395.250275 441.288086,398.277557 436.556427,398.989777 
	C432.222656,399.642090 429.807037,396.986237 430.965790,392.765472 
	C432.031586,388.883301 434.266266,385.551178 436.720428,382.407806 
	C437.971802,380.804932 439.564484,379.435730 441.801941,380.082062 
	C444.149597,380.760254 444.409027,382.871094 444.502136,384.897644 
	C444.577515,386.538452 444.476166,388.187378 444.417267,390.235596 
z"/>
<path fill="#2DA44E" opacity="1.000000" stroke="none" 
	d="
M305.069550,374.640411 
	C303.313782,377.954590 301.490906,377.487335 300.304138,374.884216 
	C298.035339,369.907837 295.804932,364.874054 294.133636,359.679077 
	C293.009491,356.184845 295.537689,353.969940 298.608795,353.002319 
	C301.894623,351.967072 303.567566,354.114166 304.334442,356.977051 
	C305.857483,362.663025 305.903076,368.445099 305.069550,374.640411 
z"/>
<path fill="#2DA44E" opacity="1.000000" stroke="none" 
	d="
M454.430908,246.387451 
	C451.299500,251.147720 448.711914,255.781097 446.700378,260.735443 
	C445.819672,262.904633 444.830383,265.543915 441.762268,264.150696 
	C438.608093,262.718384 440.308472,260.221588 441.154083,258.151733 
	C443.678986,251.971420 446.893372,246.154739 450.727234,240.690231 
	C452.149902,238.662399 453.646851,235.936096 456.604065,238.000732 
	C459.407318,239.957932 457.209381,242.082504 455.998444,243.997269 
	C455.554260,244.699615 455.083557,245.385239 454.430908,246.387451 
z"/>
<path fill="#2DA44E" opacity="1.000000" stroke="none" 
	d="
M369.541992,483.755371 
	C367.953705,488.833740 364.991730,490.914642 360.852295,490.196045 
	C356.884308,489.507172 354.157104,485.934601 354.762360,481.915710 
	C355.366211,477.905670 357.941071,475.903900 361.915894,475.743713 
	C366.597351,475.555054 368.799164,477.792114 369.541992,483.755371 
z"/>
<path fill="#2DA44E" opacity="1.000000" stroke="none" 
	d="
M522.407349,354.509521 
	C516.965759,354.815186 511.979736,355.097687 506.989899,355.269348 
	C504.930328,355.340210 502.681763,355.196289 502.743378,352.348236 
	C502.797699,349.836914 504.850220,349.801208 506.748749,349.663452 
	C513.548584,349.170044 520.339966,348.549713 527.144043,348.132080 
	C529.641418,347.978760 532.800354,347.978210 532.759644,351.416443 
	C532.721802,354.605072 529.654968,354.231781 527.357056,354.328430 
	C525.859558,354.391418 524.359924,354.405609 522.407349,354.509521 
z"/>
<path fill="#2DA44E" opacity="1.000000" stroke="none" 
	d="
M223.296692,294.836456 
	C220.831390,293.665649 218.170029,292.640472 219.471008,289.707672 
	C220.824249,286.657104 223.374420,288.250641 225.484756,289.097076 
	C231.637268,291.564819 237.779373,294.058746 243.915421,296.567200 
	C246.048828,297.439362 248.040817,298.671997 246.809921,301.351074 
	C245.686447,303.796326 243.537064,303.019623 241.629486,302.254700 
	C235.628876,299.848541 229.636948,297.420715 223.296692,294.836456 
z"/>
<path fill="#2DA44E" opacity="1.000000" stroke="none" 
	d="
M145.550812,434.170593 
	C144.043610,429.637756 145.417664,426.400787 149.441910,425.064514 
	C153.125656,423.841309 156.839203,424.503540 158.660324,428.586395 
	C160.218872,432.080536 159.194061,435.219696 155.915833,437.117401 
	C151.861191,439.464539 148.316299,438.558838 145.550812,434.170593 
z"/>
<path fill="#2DA44E" opacity="1.000000" stroke="none" 
	d="
M327.673157,234.956512 
	C327.067200,230.608765 326.436371,226.685638 325.981659,222.742218 
	C325.737030,220.620422 326.298492,218.406204 328.661896,218.083130 
	C331.242462,217.730362 332.031006,220.020752 332.090363,222.052109 
	C332.256378,227.735703 333.220123,233.242798 334.956451,238.644302 
	C335.562531,240.529800 335.490448,242.483994 333.300873,243.223663 
	C330.720306,244.095428 329.761139,242.104965 329.072205,240.152695 
	C328.522308,238.594528 328.164642,236.968552 327.673157,234.956512 
z"/>
<path fill="#2DA44E" opacity="1.000000" stroke="none" 
	d="
M222.137817,422.697876 
	C219.613968,419.942963 220.474106,417.968475 223.391968,417.451202 
	C227.912979,416.649719 232.532150,416.314026 237.125168,416.052002 
	C238.835526,415.954468 240.385849,416.914459 240.397202,419.012573 
	C240.408310,421.066406 238.969360,422.129120 237.218796,422.091064 
	C232.272812,421.983734 227.444595,423.754639 222.137817,422.697876 
z"/>
<path fill="#2DA44E" opacity="1.000000" stroke="none" 
	d="
M299.210754,335.928833 
	C303.767090,338.256683 304.661224,345.594818 301.132690,348.399414 
	C298.668121,350.358337 294.900238,349.220215 293.818420,346.190094 
	C292.202515,341.664001 293.838745,338.312531 299.210754,335.928833 
z"/>
</svg>