<?xml version="1.0" standalone="no"?><!-- Generator: Gravit.io --><svg xmlns="http://www.w3.org/2000/svg" xmlns:xlink="http://www.w3.org/1999/xlink" style="isolation:isolate" viewBox="-15.104 571.582 702.209 320.418" width="702.209" height="320.418"><defs><clipPath id="_clipPath_ArORAyg4VvTAVLPIsMsKUlr8GuiXmLKq"><rect x="-15.104" y="571.582" width="702.209" height="320.418"/></clipPath></defs><g clip-path="url(#_clipPath_ArORAyg4VvTAVLPIsMsKUlr8GuiXmLKq)"><g><path d=" M 52.452 846.238 C 36.43 834.585 22.091 821.738 11.284 805.353 C -1.313 786.256 -5.836 765.41 -3.655 742.604 C -1.836 723.582 2.289 704.853 2.777 685.665 C 3.287 665.659 -1.158 647.055 -11.093 629.719 C -12.484 627.291 -13.748 624.791 -15.104 622.261 C 6.315 615.99 59.222 651.313 65.53 677.025 C 49.093 657.05 30.404 642.56 6.376 635.959 C 4.85 638.405 6.262 639.997 6.862 641.567 C 14.357 661.177 15.333 681.359 12.766 701.986 C 10.756 718.132 7.8 734.147 7.149 750.487 C 6.095 776.963 16.594 798.358 34.869 816.55 C 39.546 821.205 44.266 825.885 50.879 830.585 C 48.565 822.67 46.485 816.134 44.746 809.508 C 36.077 776.458 41.29 744.915 54.974 714.205 C 62.427 697.478 70.912 681.222 77.293 664.001 C 87.288 637.027 85.216 611.146 71.23 586.093 C 68.677 581.52 66.412 576.786 64.085 572.265 C 65.54 571.14 66.27 571.649 66.964 572.07 C 92.753 587.719 118.694 603.142 140.16 624.811 C 155.181 639.975 167.106 656.952 172.153 678.078 C 177.32 699.709 172.637 719.998 163.569 739.629 C 156.061 755.882 145.852 770.533 136.078 785.438 C 127.673 798.255 119.175 811.019 112.938 825.102 C 108.806 834.435 105.514 843.984 105.197 854.333 C 105.164 855.418 105.323 856.705 104.078 857.417 C 102.622 854.629 102.715 849.549 104.095 841.748 C 106.829 826.286 113.196 812.233 120.584 798.554 C 129.613 781.841 140.203 766.021 148.846 749.089 C 156.532 734.03 162.882 718.591 163.731 701.355 C 164.494 685.841 160.43 671.699 152.346 658.622 C 137.078 633.924 114.785 616.688 90.068 599.999 C 91.315 605.452 92.447 609.663 93.228 613.937 C 96.804 633.493 93.73 652.301 86.738 670.674 C 80.925 685.951 73.454 700.484 66.821 715.393 C 60.852 728.812 55.797 742.499 53.306 757.054 C 49.106 781.601 53.251 805.096 62.451 827.839 C 66.505 837.861 71.459 847.519 75.992 857.348 C 76.75 858.991 77.843 860.521 77.888 864.156 C 68.974 857.879 60.858 852.165 52.452 846.238 Z " fill="rgb(255,255,255)"/><path d=" M 227.829 709.455 C 219.819 715.408 220.356 721.995 229.095 725.859 C 237.979 729.788 247.641 731.022 257.017 733.228 C 259.441 733.798 261.882 734.338 264.247 735.105 C 281.297 740.633 289.267 751.603 288.204 767.972 C 287.187 783.628 276.875 794.87 260.176 797.869 C 239.414 801.598 220.139 798.015 202.813 785.43 C 199.961 783.358 199.03 781.627 201.38 778.576 C 203.815 775.414 206.03 772.061 208.096 768.644 C 209.895 765.669 211.635 765.518 214.53 767.399 C 223.221 773.044 232.217 778.12 242.877 779.039 C 249.57 779.616 255.837 778.386 261.281 774.275 C 268.161 769.08 267.544 760.822 259.879 756.924 C 252.652 753.25 244.552 752.659 236.762 751.041 C 231.706 749.991 226.694 748.871 221.842 747.068 C 207.423 741.711 199.078 730.523 199.935 717.617 C 200.998 701.608 209.965 691.087 225.789 687.537 C 244.882 683.253 262.758 685.78 279.174 697.021 C 282.429 699.25 283.052 701.004 280.553 704.132 C 277.442 708.027 275.441 713.837 271.48 715.744 C 267.298 717.757 263.323 711.995 258.963 710.191 C 248.739 705.963 238.592 703.966 227.829 709.455 Z " fill="rgb(255,255,255)"/><path d=" M 348.292 744.666 C 348.507 750.634 347.853 756.123 349.296 761.558 C 352.616 774.067 363.252 780.787 377.788 779.343 C 389.133 778.217 398.475 768.139 398.609 756.167 C 398.839 735.505 398.706 714.838 398.733 694.174 C 398.742 687.382 398.752 687.375 405.734 687.359 C 409.4 687.35 413.07 687.469 416.732 687.347 C 419.76 687.247 420.985 688.7 420.949 691.541 C 420.658 714.858 422.237 738.231 420.096 761.482 C 418.169 782.393 400.262 798.011 378.577 798.984 C 368.986 799.415 359.591 798.679 350.804 794.356 C 335.055 786.608 327.185 773.534 326.76 756.389 C 326.24 735.403 326.71 714.395 326.534 693.399 C 326.498 689.073 327.454 687.226 332.301 687.249 C 348.292 687.324 348.29 687.133 348.288 703.173 C 348.286 716.838 348.29 730.504 348.292 744.666 Z " fill="rgb(255,255,255)"/><path d=" M 465.588 746.678 C 465.584 728.533 465.703 710.886 465.492 693.244 C 465.438 688.728 466.786 687.169 471.425 687.252 C 486.069 687.512 500.721 687.27 515.369 687.375 C 534.743 687.513 552.274 703.737 553.278 722.303 C 554.547 745.786 541.99 761.301 519.896 764.122 C 510.914 765.269 501.953 764.862 492.986 764.831 C 488.739 764.816 486.998 765.951 487.2 770.472 C 487.526 777.781 487.17 785.119 487.326 792.44 C 487.4 795.906 486.072 797.22 482.63 797.068 C 478.311 796.876 473.97 796.883 469.65 797.069 C 466.298 797.213 465.463 795.809 465.496 792.62 C 465.652 777.474 465.58 762.325 465.588 746.678 Z  M 509.287 745.248 C 510.784 745.23 512.29 745.306 513.779 745.179 C 525.48 744.183 531.905 737.299 531.626 726.109 C 531.353 715.149 523.217 707.119 512.11 706.971 C 505.286 706.879 498.458 707.038 491.636 706.905 C 488.421 706.842 487.211 708.083 487.255 711.315 C 487.386 720.968 487.425 730.626 487.242 740.278 C 487.17 744.101 488.931 745.279 492.35 745.244 C 497.676 745.189 503.003 745.24 509.287 745.248 Z " fill="rgb(255,255,255)"/><path d=" M 653.193 756.088 C 660.317 770.013 667.284 783.602 674.868 798.393 C 666.649 798.393 659.621 798.473 652.597 798.342 C 650.616 798.305 649.865 796.3 649.485 794.813 C 646.434 782.889 638.559 780.147 627.13 781.336 C 617.076 782.382 606.828 781.662 596.668 781.514 C 593.369 781.466 591.011 782.505 590.227 785.708 C 587.46 797.012 580.082 800.517 569.218 798.592 C 566.674 798.141 563.945 799.149 561.493 797.88 C 560.961 795.907 562.137 794.546 562.868 793.113 C 579.877 759.728 596.909 726.354 613.973 692.997 C 614.772 691.436 615.269 689.223 617.505 689.219 C 619.762 689.214 620.214 691.465 621.009 693.014 C 631.716 713.911 642.37 734.835 653.193 756.088 Z  M 630.17 758.247 C 626.085 749.65 622.001 741.053 617.451 731.478 C 612.481 742.035 608.009 751.533 603 762.173 C 612.445 762.173 620.81 762.238 629.172 762.132 C 631.612 762.101 630.982 760.354 630.17 758.247 Z " fill="rgb(255,255,255)"/><path d=" M 93.165 885.341 C 83.12 866.885 77.39 847.57 77.235 826.858 C 77.126 812.197 79.71 797.924 87.05 785.053 C 91.664 776.963 93.464 769.496 88.842 760.609 C 85.169 753.545 85.16 745.447 86.725 737.634 C 90.614 718.228 94.81 698.892 101.98 680.356 C 102.277 679.588 102.701 678.87 103.097 678.067 C 104.722 681.414 104.627 684.776 102.99 694.282 C 101.299 704.102 99.755 713.947 98.101 723.774 C 97.769 725.749 96.856 728.323 99.549 728.748 C 102.622 729.233 103.071 726.165 103.478 723.963 C 105.29 714.17 106.865 704.334 108.681 694.541 C 109.607 689.551 110.86 684.621 112.685 679.748 C 116.532 696.256 112.244 712.544 110.644 729.072 C 114.516 728.755 114.419 726.553 114.732 724.64 C 116.846 711.696 118.503 698.672 121.52 685.886 C 121.932 684.144 122.057 682.3 123.898 680.529 C 127.801 697.441 122.145 713.748 122.984 730.243 C 127 725.977 126.438 720.329 127.496 715.264 C 128.58 710.077 128.96 704.743 129.654 699.474 C 130.366 694.075 131.085 688.677 131.946 682.181 C 134.938 687.05 134.739 691.593 135.026 695.752 C 136.203 712.812 134.822 729.655 129.093 745.937 C 126.264 753.981 122.245 761.592 114.739 765.807 C 96.868 775.841 91.468 792.944 88.436 811.122 C 84.205 836.481 88.911 861.105 96.494 885.304 C 97.026 887 97.994 888.613 97.57 890.932 C 95.095 889.806 94.629 887.378 93.165 885.341 Z " fill="rgb(255,255,255)"/><path d=" M 34.313 730.87 C 31.944 742.924 30.895 754.632 31.207 766.51 C 31.517 778.265 34.785 789.331 38.716 800.535 C 36.105 800.426 35.688 798.548 34.908 797.286 C 24.24 780.017 21.025 761.274 23.299 741.225 C 25.061 725.689 29.042 710.51 30.414 694.947 C 31.863 678.516 27.495 663.634 17.469 650.454 C 16.422 649.078 14.625 648.087 14.749 645.174 C 21.841 649.882 27.088 655.666 31.216 662.43 C 38.74 674.758 40.187 688.387 38.974 702.417 C 38.158 711.862 36.326 721.17 34.313 730.87 Z " fill="rgb(255,255,255)"/><path d=" M 226.802 870.499 C 226.781 864.859 226.903 859.688 226.694 854.531 C 226.482 849.313 222.942 845.916 218.194 845.972 C 213.871 846.023 210.433 849.571 210.277 854.563 C 210.095 860.389 210.248 866.226 210.168 872.057 C 210.137 874.315 210.588 877.07 206.866 876.869 C 203.417 876.682 203.646 874.149 203.644 871.788 C 203.637 862.124 203.651 852.459 203.636 842.795 C 203.632 840.729 203.748 839.028 206.17 837.99 C 209.143 836.715 209.868 838.96 211.078 840.718 C 218.186 838.102 224.643 838.898 230.209 844.093 C 234.052 841.412 237.574 839.114 242.286 839.279 C 250.506 839.566 256.948 845.393 257.234 853.632 C 257.448 859.79 257.141 865.965 257.337 872.124 C 257.479 876.583 255.526 877.784 251.232 876.598 C 250.103 872.119 250.896 867.465 250.698 862.874 C 250.569 859.88 250.91 856.836 250.503 853.889 C 249.901 849.522 247.437 846.464 242.774 846.05 C 237.995 845.627 235.26 848.329 234.182 852.704 C 232.483 859.599 233.685 866.642 233.411 873.613 C 233.339 875.451 233.094 876.949 230.748 876.942 C 228.665 876.935 227.133 876.285 226.903 873.967 C 226.804 872.976 226.831 871.971 226.802 870.499 Z " fill="rgb(255,255,255)"/><path d=" M 414.453 872.736 C 414.284 877.846 414.286 882.668 414.156 887.487 C 414.102 889.51 414.757 892.18 411.21 891.99 C 408.093 891.824 407.549 889.825 407.571 887.174 C 407.643 878.361 407.61 869.547 407.609 860.733 C 407.608 854.579 407.639 848.425 407.567 842.273 C 407.536 839.606 407.652 837.229 411.1 836.834 C 414.552 836.439 413.868 839.369 414.648 841.55 C 419.644 838.297 424.81 836.575 430.708 837.264 C 441.041 838.47 447.777 846.881 447.314 858.38 C 446.925 868.007 438.865 875.465 429.144 876.146 C 423.673 876.53 419.371 873.86 414.453 872.736 Z  M 440.744 856.262 C 439.935 848.063 434.779 843.343 427.072 843.744 C 420.055 844.109 415.081 849.384 415.107 856.431 C 415.133 863.471 420.179 869.027 426.89 869.404 C 434.636 869.839 439.788 865.255 440.744 856.262 Z " fill="rgb(255,255,255)"/><path d=" M 505.592 840.345 C 505.794 838.169 506.64 837.267 508.602 837.886 C 510.366 838.443 512.208 838.887 512.206 841.324 C 512.195 851.977 512.303 862.631 512.144 873.281 C 512.09 876.892 509.131 876.495 506.902 876.61 C 505.169 875.385 506.057 873.564 505.265 872.304 C 504.383 871.73 503.686 872.282 503.023 872.726 C 497.377 876.506 491.177 877.198 484.876 875.239 C 473.881 871.821 468.526 859.292 473.112 848.422 C 477.486 838.056 490.598 833.753 500.963 839.151 C 502.337 839.866 503.405 842.07 505.592 840.345 Z  M 479.177 851.637 C 478.35 853.146 478.241 854.79 478.236 856.464 C 478.22 861.908 481.209 866.453 486.209 868.553 C 491.08 870.599 496.618 869.496 500.446 865.716 C 504.292 861.918 505.477 856.478 503.405 851.577 C 501.257 846.498 497.12 843.628 491.868 843.347 C 486.349 843.052 482.018 845.804 479.177 851.637 Z " fill="rgb(255,255,255)"/><path d=" M 321.809 840.321 C 330.63 834.835 338.838 836.018 346.623 841.411 C 348.35 840.67 347.127 838.633 349.153 837.809 C 350.962 838.173 354.057 837.719 354.116 841.243 C 354.294 851.881 354.174 862.525 354.203 873.167 C 354.21 875.626 352.465 876.172 350.629 876.531 C 346.632 877.313 348.423 873.301 347.003 871.955 C 332.532 878.45 322.631 876.911 316.609 867.269 C 311.015 858.312 312.932 847.849 321.809 840.321 Z  M 321.805 850.236 C 321.362 851.308 320.755 852.343 320.502 853.457 C 319.149 859.439 321.928 865.432 327.241 868.186 C 332.434 870.877 338.703 869.762 342.756 865.428 C 347 860.89 347.698 854.937 344.581 849.872 C 339.257 841.22 329.188 841.092 321.805 850.236 Z " fill="rgb(255,255,255)"/><path d=" M 302.616 852.268 C 293.43 856.159 284.083 858.616 275.458 862.882 C 279.045 870.969 289.529 871.95 295.458 865.216 C 297.461 862.941 299.072 857.937 302.879 861.552 C 306.295 864.796 302.017 867.844 300.012 870.185 C 294.801 876.27 284.572 877.897 277.006 874.346 C 269.969 871.045 265.067 862.658 265.821 855.211 C 266.743 846.098 272.739 839.173 281.369 837.252 C 289.611 835.417 298.496 838.95 302.527 845.914 C 303.577 847.727 305.632 849.837 302.616 852.268 Z  M 289.239 843.859 C 280.898 841.768 273.882 846.659 272.742 855.923 C 280.227 853.471 287.522 851.33 294.349 847.797 C 293.365 845.373 291.622 844.76 289.239 843.859 Z " fill="rgb(255,255,255)"/><path d=" M 655.473 867.121 C 649.41 875.116 641.441 877.947 632.885 875.386 C 625.191 873.083 619.472 865.893 618.813 857.692 C 618.219 850.296 622.791 842.383 629.705 838.843 C 638.741 834.216 650.405 837.432 655.579 845.977 C 658.192 850.293 657.812 851.544 653.129 853.306 C 646.74 855.71 640.305 857.99 633.919 860.401 C 632.087 861.093 630.029 861.446 628.526 863.373 C 629.56 867.161 632.589 868.688 636.085 869.313 C 641.652 870.31 646.5 868.702 649.551 863.812 C 651.709 860.355 653.844 859.496 657.046 862.092 C 657.546 864.011 656.281 865.317 655.473 867.121 Z  M 627.119 850.29 C 626.368 851.902 625.51 853.492 626.073 855.811 C 633.493 853.665 640.531 850.991 647.814 847.868 C 641.007 840.959 633.597 841.902 627.119 850.29 Z " fill="rgb(255,255,255)"/><path d=" M 531.238 857.047 C 531.218 862.667 531.211 867.829 531.185 872.992 C 531.174 875.197 530.73 877.056 527.873 876.811 C 525.436 876.602 524.436 875.297 524.459 872.844 C 524.556 862.686 524.56 852.526 524.594 842.367 C 524.6 840.33 524.523 838.28 527.121 837.598 C 529.673 836.928 531.287 837.886 531.719 840.714 C 533.71 839.963 535.238 839.368 536.779 838.809 C 548.589 834.526 560.612 842.472 561.236 855.147 C 561.514 860.796 561.218 866.471 561.325 872.132 C 561.378 874.932 560.426 876.752 557.453 876.73 C 554.033 876.706 554.754 873.951 554.71 871.948 C 554.605 867.12 554.725 862.288 554.65 857.459 C 554.532 849.747 549.94 844.37 543.322 844.073 C 536.736 843.776 531.862 848.828 531.238 857.047 Z " fill="rgb(255,255,255)"/><path d=" M 572.558 840.846 C 575.121 836.266 577.098 836.235 580.075 840.572 C 581.532 840.035 583.059 839.466 584.59 838.908 C 596.469 834.573 608.477 842.297 609.214 854.968 C 609.551 860.776 609.231 866.621 609.315 872.447 C 609.353 875.07 608.318 876.603 605.637 876.731 C 602.597 876.876 602.724 874.613 602.704 872.606 C 602.655 867.444 602.747 862.281 602.646 857.121 C 602.495 849.517 597.625 844.123 591.006 844.071 C 584.23 844.018 579.406 849.218 579.255 856.886 C 579.151 862.213 579.219 867.542 579.172 872.87 C 579.154 875.009 578.845 877.001 575.936 876.755 C 573.47 876.546 572.568 875.113 572.576 872.722 C 572.609 862.232 572.565 851.742 572.558 840.846 Z " fill="rgb(255,255,255)"/><path d=" M 665.65 851.688 C 665.652 848.204 665.693 845.216 665.647 842.23 C 665.611 839.806 665.71 837.675 668.686 836.782 C 671.608 835.906 672.371 837.883 672.864 839.907 C 676.489 839.192 679.189 837.45 682.399 837.083 C 685.22 836.76 686.434 837.868 686.977 840.311 C 687.615 843.187 685.765 843.544 683.562 843.859 C 676.336 844.892 672.467 849.25 672.337 856.581 C 672.223 863.006 672.313 869.435 672.313 875.904 C 667.531 876.9 665.475 875.677 665.616 871.1 C 665.811 864.801 665.656 858.491 665.65 851.688 Z " fill="rgb(255,255,255)"/><path d=" M 454.654 867.623 C 454.655 853.68 454.775 840.228 454.59 826.78 C 454.53 822.382 456.104 820.592 460.475 821.366 C 461.742 822.966 461.265 824.865 461.269 826.637 C 461.31 841.249 461.37 855.863 461.217 870.473 C 461.191 872.859 462.914 876.796 458.141 876.851 C 453.596 876.904 454.923 873.194 454.667 870.606 C 454.586 869.784 454.654 868.947 454.654 867.623 Z " fill="rgb(255,255,255)"/><path d=" M 372.297 854.678 C 372.29 861.158 372.271 867.138 372.28 873.118 C 372.283 875.32 371.959 877.097 369.062 876.936 C 366.453 876.791 365.683 875.303 365.684 872.997 C 365.693 857.05 365.681 841.104 365.69 825.157 C 365.693 820.879 368.663 821.221 372.297 821.23 C 372.297 832.359 372.297 843.268 372.297 854.678 Z " fill="rgb(255,255,255)"/></g></g></svg>